<svg xmlns="http://www.w3.org/2000/svg" viewBox="0 0 1200 630" width="1200" height="630">
  <defs>
    <linearGradient id="bg" x1="0%" y1="0%" x2="100%" y2="100%">
      <stop offset="0%" style="stop-color:#0a0a0f"/>
      <stop offset="100%" style="stop-color:#111118"/>
    </linearGradient>
    <linearGradient id="accent" x1="0%" y1="0%" x2="100%" y2="0%">
      <stop offset="0%" style="stop-color:#00e5ff"/>
      <stop offset="100%" style="stop-color:#7c3aed"/>
    </linearGradient>
  </defs>

  <!-- Background -->
  <rect width="1200" height="630" fill="url(#bg)"/>

  <!-- Grid lines -->
  <line x1="0" y1="0" x2="1200" y2="0" stroke="#1e1e2e" stroke-width="1"/>
  <line x1="0" y1="630" x2="1200" y2="630" stroke="#1e1e2e" stroke-width="1"/>
  <line x1="0" y1="0" x2="0" y2="630" stroke="#1e1e2e" stroke-width="1"/>
  <line x1="1200" y1="0" x2="1200" y2="630" stroke="#1e1e2e" stroke-width="1"/>

  <!-- Subtle grid pattern -->
  <line x1="0" y1="210" x2="1200" y2="210" stroke="#1e1e2e" stroke-width="0.5" opacity="0.5"/>
  <line x1="0" y1="420" x2="1200" y2="420" stroke="#1e1e2e" stroke-width="0.5" opacity="0.5"/>
  <line x1="400" y1="0" x2="400" y2="630" stroke="#1e1e2e" stroke-width="0.5" opacity="0.5"/>
  <line x1="800" y1="0" x2="800" y2="630" stroke="#1e1e2e" stroke-width="0.5" opacity="0.5"/>

  <!-- Accent bar top -->
  <rect width="1200" height="4" fill="url(#accent)"/>

  <!-- Monogram badge -->
  <rect x="80" y="190" width="72" height="72" rx="12" fill="#111118" stroke="#00e5ff" stroke-width="1.5"/>
  <text x="116" y="244" font-family="monospace" font-size="28" font-weight="700" fill="#00e5ff" text-anchor="middle">LN</text>

  <!-- Name -->
  <text x="80" y="310" font-family="'Helvetica Neue', Arial, sans-serif" font-size="52" font-weight="800" fill="#e2e8f0" letter-spacing="-1">Likubangwa Jay-Z Nyeliso</text>

  <!-- Title -->
  <text x="80" y="372" font-family="monospace" font-size="20" fill="#00e5ff" letter-spacing="3">SYSTEM ADMINISTRATOR · IT PROFESSIONAL</text>

  <!-- Divider -->
  <rect x="80" y="400" width="120" height="2" fill="url(#accent)"/>

  <!-- Tags -->
  <!-- Tag 1 -->
  <rect x="80" y="430" width="160" height="36" rx="6" fill="#1e1e2e" stroke="#1e1e2e"/>
  <text x="160" y="453" font-family="monospace" font-size="13" fill="#94a3b8" text-anchor="middle">Linux Infrastructure</text>

  <!-- Tag 2 -->
  <rect x="256" y="430" width="140" height="36" rx="6" fill="#1e1e2e" stroke="#1e1e2e"/>
  <text x="326" y="453" font-family="monospace" font-size="13" fill="#94a3b8" text-anchor="middle">Active Directory</text>

  <!-- Tag 3 -->
  <rect x="412" y="430" width="120" height="36" rx="6" fill="#1e1e2e" stroke="#1e1e2e"/>
  <text x="472" y="453" font-family="monospace" font-size="13" fill="#94a3b8" text-anchor="middle">Networking</text>

  <!-- Tag 4 -->
  <rect x="548" y="430" width="140" height="36" rx="6" fill="#1e1e2e" stroke="#1e1e2e"/>
  <text x="618" y="453" font-family="monospace" font-size="13" fill="#94a3b8" text-anchor="middle">Server Hardware</text>

  <!-- Location -->
  <text x="80" y="535" font-family="monospace" font-size="14" fill="#475569" letter-spacing="2">📍 WINDHOEK, NAMIBIA  ·  BSc CS, NUST 2026</text>

  <!-- Right side: URL -->
  <text x="1120" y="590" font-family="monospace" font-size="15" fill="#00e5ff" text-anchor="end" opacity="0.8">nyeliso-223082317.github.io</text>
</svg>
